<!--
<svg xmlns="http://www.w3.org/2000/svg" viewBox="0 0 1440 320">
  <path fill="#cfd8dc" fill-opacity="1" d="M0,192L40,181.3C80,171,160,149,240,122.7C320,96,400,64,480,69.3C560,75,640,117,720,122.7C800,128,880,96,960,106.7C1040,117,1120,171,1200,181.3C1280,192,1360,160,1400,144L1440,128L1440,0L1400,0C1360,0,1280,0,1200,0C1120,0,1040,0,960,0C880,0,800,0,720,0C640,0,560,0,480,0C400,0,320,0,240,0C160,0,80,0,40,0L0,0Z"></path>
</svg>


<svg xmlns="http://www.w3.org/2000/svg" viewBox="0 0 1440 320">
  <path fill="#cfd8dc" fill-opacity="1" d="M0,128L80,149.3C160,171,320,213,480,234.7C640,256,800,256,960,218.7C1120,181,1280,107,1360,69.3L1440,32L1440,0L1360,0C1280,0,1120,0,960,0C800,0,640,0,480,0C320,0,160,0,80,0L0,0Z"></path>
</svg>

<svg xmlns="http://www.w3.org/2000/svg" viewBox="0 0 1440 320">
  <path fill="#cfd8dc" fill-opacity="1" d="M0,192L80,192C160,192,320,192,480,170.7C640,149,800,107,960,85.3C1120,64,1280,64,1360,64L1440,64L1440,0L1360,0C1280,0,1120,0,960,0C800,0,640,0,480,0C320,0,160,0,80,0L0,0Z"></path>
</svg>

<svg xmlns="http://www.w3.org/2000/svg" viewBox="0 0 1440 320">
  <path fill="#cfd8dc" fill-opacity="1" d="M0,32L80,26.7C160,21,320,11,480,26.7C640,43,800,85,960,96C1120,107,1280,85,1360,74.7L1440,64L1440,0L1360,0C1280,0,1120,0,960,0C800,0,640,0,480,0C320,0,160,0,80,0L0,0Z"></path>
</svg>
  -->

<svg xmlns="http://www.w3.org/2000/svg" viewBox="0 0 1440 320">
  <path fill="#cfd8dc" fill-opacity="1" d="M0,160L80,160C160,160,320,160,480,149.3C640,139,800,117,960,117.3C1120,117,1280,139,1360,149.3L1440,160L1440,0L1360,0C1280,0,1120,0,960,0C800,0,640,0,480,0C320,0,160,0,80,0L0,0Z"></path>
</svg>
